<svg xmlns="http://www.w3.org/2000/svg" xmlns:xlink="http://www.w3.org/1999/xlink" version="1.1" x="0px" y="0px" viewBox="0 0 100 125" style="enable-background:new 0 0 100 100; background-color: white;" xml:space="preserve">
  <rect width="100" height="100" fill="white"/>
  <g>
    <path d="M78.658,0H21.342c-3.867,0-7.013,3.146-7.013,7.014v85.973c0,3.867,3.146,7.014,7.013,7.014h57.316   c3.867,0,7.013-3.146,7.013-7.014V7.014C85.671,3.146,82.525,0,78.658,0z M21.342,7.014h57.316v85.973H21.342V7.014z M29.528,23.39   l0.332-1.982c-1.729,0.554-3.741-0.166-3.741-3.475c0-2.775,4.776-6.143,4.776-6.143s4.776,3.414,4.776,6.143   c0,2.809-1.598,4.161-3.741,3.475l0.332,1.982H29.528z M69.105,54.776C69.105,40.447,50,28.507,50,28.507   s-19.105,11.94-19.105,26.27c0,8.538,8.359,13.806,15.677,11.325l-1.348,5.392h9.553l-1.347-5.387   C60.781,68.61,69.105,63.252,69.105,54.776z M50,58.279c0,0-3.468,3.661-7.165,3.661c-3.951,0-7.165-3.214-7.165-7.164   c0-8.106,8.811-16.367,14.329-20.472c5.518,4.104,14.329,12.365,14.329,20.472c0,3.95-3.214,7.164-7.165,7.164   C53.691,61.94,50,58.279,50,58.279z M73.881,82.753c0,3.412-2.17,3.979-3.74,3.476l0.332,1.981h-2.734l0.332-1.981   c-1.625,0.52-3.741-0.091-3.741-3.476c0-2.775,4.776-6.143,4.776-6.143S73.881,80.024,73.881,82.753z"/>
  </g>
</svg>
