<svg xmlns="http://www.w3.org/2000/svg" xmlns:xlink="http://www.w3.org/1999/xlink" version="1.1" x="0px" y="0px" viewBox="0 0 170 212.5" enable-background="new 0 0 170 170" xml:space="preserve">
  <path d="M155.227,6.58h-73.06c-5.27,0-9.58,4.22-9.71,9.46l-29.96,6.06c-5.25,1.06-8.66,6.2-7.6,11.45l0.45,2.2L10.917,46.3  c-4.92,2.12-7.19,7.85-5.07,12.76l42.5,98.49c1.03,2.38,2.92,4.22,5.33,5.18c1.16,0.46,2.38,0.69,3.59,0.69  c1.31,0,2.61-0.27,3.85-0.8l65.48-28.27l5.3-1.07h23.33c5.36,0,9.72-4.36,9.72-9.71V16.3C164.947,10.94,160.587,6.58,155.227,6.58z   M65.897,136.43L44.757,31.84l27.69-5.6v97.33c0,5.15,4.04,9.38,9.12,9.69L65.897,136.43z M139.799,82.747  c-4.499,4.634-11.589,5.468-16.607,1.929l2.727,8.858c0.28,0.91-0.401,1.832-1.353,1.832h-11.739c-0.952,0-1.633-0.922-1.353-1.832  l2.74-8.901c-5.034,3.566-12.158,2.714-16.657-1.955c-4.871-5.054-5.459-13.318-0.828-18.406c5.16-5.669,22.03-19.872,22.03-19.872  s16.799,14.261,21.935,19.945C145.308,69.449,144.688,77.712,139.799,82.747z" fill="#ffffff" stroke="#ffffff"/>
</svg>
